<svg version="1.1" id="Layer_1" xmlns="http://www.w3.org/2000/svg" xmlns:xlink="http://www.w3.org/1999/xlink" x="0px" y="0px"
	 width="100%" viewBox="0 0 694 694" enable-background="new 0 0 694 694" xml:space="preserve">
<path fill="#FFFFFF" opacity="1.000000" stroke="none" 
	d="
M323.000000,695.000000 
	C215.352615,695.000000 108.205238,695.000000 1.028926,695.000000 
	C1.028926,463.727570 1.028926,232.455154 1.028926,1.091368 
	C232.230759,1.091368 463.461578,1.091368 694.846191,1.091368 
	C694.846191,232.333252 694.846191,463.666626 694.846191,695.000000 
	C571.121765,695.000000 447.310883,695.000000 323.000000,695.000000 
M214.617874,396.728973 
	C213.466751,376.804230 212.104004,356.888916 211.218048,336.952393 
	C210.110184,312.022705 209.193558,287.080627 208.576019,262.134430 
	C208.123367,243.850433 207.875137,225.541931 208.290344,207.261490 
	C208.694153,189.482391 209.895218,171.714417 211.058197,153.961990 
	C211.839371,142.037872 212.830475,130.106583 214.351379,118.258545 
	C215.554291,108.887650 218.313782,99.699425 219.253235,90.317047 
	C220.070435,82.155624 220.805283,73.477539 218.934753,65.659874 
	C214.878235,48.706001 198.922928,37.643475 183.293762,39.144230 
	C164.419876,40.956551 151.896423,53.222507 149.840790,71.920265 
	C149.423004,75.720390 149.237564,79.558235 148.597122,83.319458 
	C146.503616,95.614334 143.521393,107.806564 142.241943,120.179016 
	C140.653152,135.542542 140.411469,151.045898 139.606949,166.489868 
	C138.560196,186.583847 136.650497,206.681030 136.701874,226.772781 
	C136.779739,257.215332 137.881134,287.669159 139.182831,318.091034 
	C140.711395,353.814331 143.629440,389.488007 144.665543,425.220306 
	C146.199890,478.135895 146.615524,531.084045 147.479523,584.018738 
	C147.538986,587.661987 146.925400,591.364136 147.373672,594.945190 
	C150.117065,616.861755 167.810028,630.568848 190.763260,628.722107 
	C214.610931,626.803467 238.479584,625.093567 262.291321,622.797180 
	C280.623962,621.029297 298.862030,618.299988 317.180450,616.359436 
	C333.345642,614.646912 349.557556,613.356567 365.763153,612.058411 
	C369.544800,611.755493 373.407074,612.484619 377.193054,612.206177 
	C389.959656,611.267212 402.690491,609.554077 415.468384,609.119568 
	C437.764679,608.361389 460.085541,608.158569 482.396729,608.125122 
	C487.905151,608.116882 493.516876,609.242798 498.905823,610.562927 
	C512.664001,613.933167 524.520264,611.065613 534.459412,600.833374 
	C544.027405,590.983215 546.586609,579.130737 542.838501,566.343262 
	C537.785950,549.105164 524.922729,539.304932 507.781677,538.399048 
	C479.217529,536.889465 450.529755,537.102783 421.908569,537.540588 
	C406.836182,537.771179 391.791901,541.096069 376.739716,541.059387 
	C359.740173,541.018066 342.915741,541.589355 326.051727,543.756653 
	C298.196991,547.336487 270.273865,550.387451 242.371902,553.594788 
	C234.519318,554.497498 226.640030,555.167908 218.723740,555.949707 
	C217.410553,502.799774 216.111801,450.234039 214.617874,396.728973 
z"/>
<path fill="#1A1A1A" opacity="1.000000" stroke="none" 
	d="
M214.715454,397.198669 
	C216.111801,450.234039 217.410553,502.799774 218.723740,555.949707 
	C226.640030,555.167908 234.519318,554.497498 242.371902,553.594788 
	C270.273865,550.387451 298.196991,547.336487 326.051727,543.756653 
	C342.915741,541.589355 359.740173,541.018066 376.739716,541.059387 
	C391.791901,541.096069 406.836182,537.771179 421.908569,537.540588 
	C450.529755,537.102783 479.217529,536.889465 507.781677,538.399048 
	C524.922729,539.304932 537.785950,549.105164 542.838501,566.343262 
	C546.586609,579.130737 544.027405,590.983215 534.459412,600.833374 
	C524.520264,611.065613 512.664001,613.933167 498.905823,610.562927 
	C493.516876,609.242798 487.905151,608.116882 482.396729,608.125122 
	C460.085541,608.158569 437.764679,608.361389 415.468384,609.119568 
	C402.690491,609.554077 389.959656,611.267212 377.193054,612.206177 
	C373.407074,612.484619 369.544800,611.755493 365.763153,612.058411 
	C349.557556,613.356567 333.345642,614.646912 317.180450,616.359436 
	C298.862030,618.299988 280.623962,621.029297 262.291321,622.797180 
	C238.479584,625.093567 214.610931,626.803467 190.763260,628.722107 
	C167.810028,630.568848 150.117065,616.861755 147.373672,594.945190 
	C146.925400,591.364136 147.538986,587.661987 147.479523,584.018738 
	C146.615524,531.084045 146.199890,478.135895 144.665543,425.220306 
	C143.629440,389.488007 140.711395,353.814331 139.182831,318.091034 
	C137.881134,287.669159 136.779739,257.215332 136.701874,226.772781 
	C136.650497,206.681030 138.560196,186.583847 139.606949,166.489868 
	C140.411469,151.045898 140.653152,135.542542 142.241943,120.179016 
	C143.521393,107.806564 146.503616,95.614334 148.597122,83.319458 
	C149.237564,79.558235 149.423004,75.720390 149.840790,71.920265 
	C151.896423,53.222507 164.419876,40.956551 183.293762,39.144230 
	C198.922928,37.643475 214.878235,48.706001 218.934753,65.659874 
	C220.805283,73.477539 220.070435,82.155624 219.253235,90.317047 
	C218.313782,99.699425 215.554291,108.887650 214.351379,118.258545 
	C212.830475,130.106583 211.839371,142.037872 211.058197,153.961990 
	C209.895218,171.714417 208.694153,189.482391 208.290344,207.261490 
	C207.875137,225.541931 208.123367,243.850433 208.576019,262.134430 
	C209.193558,287.080627 210.110184,312.022705 211.218048,336.952393 
	C212.104004,356.888916 213.466751,376.804230 214.715454,397.198669 
z"/>
</svg>